<?xml version="1.0" encoding="UTF-8"?>
<svg id="Lag_2" data-name="Lag 2" xmlns="http://www.w3.org/2000/svg" viewBox="0 0 108 108">
  <defs>
    <style>
      .cls-1 {
        fill: #ff7bac;
        stroke: #000;
        stroke-miterlimit: 10;
      }
    </style>
  </defs>
  <g id="Lag_1-2" data-name="Lag 1">
    <path class="cls-1" d="m38.95.5c6.46,0,11.7,5.25,11.7,11.7v83.59c0,6.46-5.25,11.7-11.7,11.7-6.04,0-11.01-4.58-11.64-10.47-1.09.29-2.24.44-3.41.44-7.38,0-13.38-6-13.38-13.37,0-1.55.27-3.05.75-4.43-6.31-2.38-10.78-8.48-10.78-15.63,0-6.67,3.91-12.43,9.57-15.11-1.82-2.28-2.88-5.16-2.88-8.3,0-6.42,4.51-11.77,10.53-13.08-.33-1.15-.5-2.38-.5-3.64,0-6.25,4.31-11.52,10.09-12.98.63-5.85,5.6-10.43,11.64-10.43Zm30.09,0c6.04,0,10.99,4.58,11.64,10.43,5.81,1.46,10.09,6.71,10.09,12.98,0,1.25-.17,2.49-.5,3.64,6.02,1.3,10.53,6.67,10.53,13.08,0,3.13-1.07,6.02-2.88,8.3,5.66,2.68,9.57,8.44,9.57,15.11,0,7.15-4.47,13.25-10.78,15.63.48,1.38.75,2.88.75,4.43,0,7.38-6,13.37-13.38,13.37-1.17,0-2.32-.15-3.41-.44-.63,5.89-5.6,10.47-11.64,10.47-6.46,0-11.7-5.25-11.7-11.7V12.2c0-6.46,5.25-11.7,11.7-11.7Z"/>
  </g>
</svg>