<?xml version="1.0" encoding="UTF-8"?>
<svg id="Lag_2" data-name="Lag 2" xmlns="http://www.w3.org/2000/svg" viewBox="0 0 114.94 113.14">
  <defs>
    <style>
      .cls-1 {
        fill: #22b573;
        stroke: #000;
        stroke-miterlimit: 10;
      }
    </style>
  </defs>
  <g id="Lag_1-2" data-name="Lag 1">
    <path class="cls-1" d="m11.18,57.46c0-25.57,20.71-46.28,46.28-46.28,14.04,0,26.61,6.25,35.11,16.13,1.91,2.25,5.3,2.49,7.52.58s2.49-5.3.58-7.52C90.24,8.2,74.75.5,57.46.5,26,.5.5,26,.5,57.46v8.9c0,2.96,2.38,5.34,5.34,5.34s5.34-2.38,5.34-5.34v-8.9Zm102.02-11.77c-.6-2.89-3.45-4.74-6.32-4.12s-4.74,3.45-4.12,6.32c.65,3.09,1,6.3,1,9.59v8.9c0,2.96,2.38,5.34,5.34,5.34s5.34-2.38,5.34-5.34v-8.92c0-4.03-.42-7.97-1.22-11.77h-.02Zm-55.74-27.39c-4.23,0-8.32.67-12.13,1.91-3.38,1.11-4.16,5.27-1.85,7.99,1.58,1.85,4.18,2.4,6.54,1.76,2.36-.65,4.85-.98,7.43-.98,15.73,0,28.48,12.75,28.48,28.48v5.54c0,5.61-.33,11.19-.98,16.75-.38,3.25,2.09,6.19,5.38,6.19,2.63,0,4.87-1.91,5.18-4.52.73-6.1,1.11-12.24,1.11-18.4v-5.56c0-21.63-17.53-39.16-39.16-39.16h-.02Zm-23.43,15.29c-2.02-2.36-5.63-2.54-7.54-.09-5.14,6.61-8.19,14.93-8.19,23.96v5.54c0,5.38-.58,10.77-1.74,16-.76,3.47,1.76,6.94,5.32,6.94,2.34,0,4.43-1.56,4.94-3.85,1.42-6.25,2.16-12.64,2.16-19.09v-5.54c0-6.05,1.89-11.66,5.1-16.26,1.6-2.31,1.78-5.47-.04-7.61Zm23.43,2.51c-11.79,0-21.36,9.57-21.36,21.36v5.54c0,7.99-1.02,15.91-3.07,23.61-.85,3.18,1.49,6.45,4.78,6.45,2.11,0,3.98-1.38,4.54-3.43,2.34-8.68,3.54-17.62,3.54-26.63v-5.54c0-6.39,5.18-11.57,11.57-11.57s11.57,5.18,11.57,11.57v5.54c0,8.08-.78,16.11-2.31,24.01-.6,3.09,1.71,6.05,4.85,6.05,2.27,0,4.23-1.56,4.67-3.78,1.71-8.63,2.58-17.42,2.58-26.28v-5.54c0-11.79-9.57-21.36-21.36-21.36Zm5.34,21.36c0-2.96-2.38-5.34-5.34-5.34s-5.34,2.38-5.34,5.34v5.54c0,13.33-2.45,26.54-7.23,38.98l-1.31,3.4c-1.07,2.76.31,5.85,3.07,6.9s5.85-.31,6.9-3.07l1.31-3.4c5.25-13.66,7.94-28.17,7.94-42.81v-5.54Z"/>
  </g>
</svg>