<?xml version="1.0" encoding="UTF-8"?>
<svg id="Lag_1" data-name="Lag 1" xmlns="http://www.w3.org/2000/svg" viewBox="0 0 638.89 654.5">
  <defs>
    <style>
      .cls-1 {
        fill: #ff7bac;
      }

      .cls-1, .cls-2, .cls-3, .cls-4, .cls-5, .cls-6 {
        stroke-miterlimit: 10;
      }

      .cls-1, .cls-2, .cls-3, .cls-4, .cls-6 {
        stroke: #fff8f0;
      }

      .cls-1, .cls-2, .cls-4, .cls-6 {
        stroke-width: 3px;
      }

      .cls-2, .cls-3 {
        fill: none;
      }

      .cls-3, .cls-5 {
        stroke-width: 2px;
      }

      .cls-4 {
        fill: #64e3a1;
      }

      .cls-5 {
        fill: #fff;
        stroke: #000;
      }

      .cls-6 {
        fill: #3fa9f5;
      }
    </style>
  </defs>
  <path class="cls-2" d="m70.76,319.42c-12.45-25.86-46.03-120.01,50.6-239.07,2.16-2.66,12.68-11.09,15.43-13.24,30.8-23.97,70.68-47.78,116.34-58.06,60.19-13.56,193.91-13.11,263.31,37.46,69.4,50.57,118.39,117.99,120.43,168.56.27,6.52.43,12.23.51,17.23.31,19.25-15.9,35.36-36.84,36.6-42.89,2.53-114.22,9.51-143.29,28.58-42.86,28.09-93.89,61.8-102.06,112.37-8.16,50.57,2.04,73.04-4.08,89.9-6.12,16.86-10.21,44.95-30.62,63.68-20.82,19.1-89.81,50.57-108.18,52.44-10.64,1.09-47.21.28-76.15-.58-21.27-.64-38.15-16.65-38.15-36.17v-16.85c0-2.27-.22-4.53-.69-6.78-.8-3.71-2.33-8.63-5.06-9.46-4.45-1.33-16.7-3.2-16.7-10.69v-.37c0-11.56-6.1-22.31-16.19-29.23-5.14-3.54-8.9-7.32-6.27-9.74,6.12-5.62,18.37-18.73,10.21-18.73s-57.15-3.74-59.19-11.24c-2.04-7.49-3.47-20.17-2.04-22.47,8.16-13.11,47.54-62.07,64.89-84.99,4.29-5.66,6.72-12.3,7.02-19.2l.16-3.78c.24-5.56-.94-11.09-3.39-16.18v.04Z"/>
  <path class="cls-2" d="m332.74,580.27c22.45,14.93,32.66,73.98,32.66,73.98"/>
  <path class="cls-6" d="m481.75,533.45c51.86,0,93.89-38.57,93.89-86.15s-42.04-86.15-93.89-86.15-93.89,38.57-93.89,86.15,42.04,86.15,93.89,86.15Z"/>
  <path class="cls-4" d="m140.88,328.3l44.13-21.8-44.13-10.9v32.7Z"/>
  <path class="cls-1" d="m189.86,145.77s102.06-110.5,214.32-59.93c112.26,50.57,120.43,144.75,16.33,149.83,0,0-66.89-13.99-91.85-22.47-55.11-18.73-57.15,3.75-110.22-3.74-19.86-2.81-59.19-24.35-28.58-63.68Z"/>
  <path class="cls-5" d="m257.34,124.23l2.12,6.59,7.96,2.38,5.92-4.2,7.86,5.24-2.51,6.46c2.1,2.64,2.82,3.56,4.92,6.2l7.47-.19,3,8.48-6.16,3.88v7.68l6.16,3.88-3,8.48-7.47-.19c-2.1,2.64-2.82,3.56-4.92,6.2l2.51,6.46c-4.08,2.73-3.78,2.51-7.86,5.24l-5.92-4.2c-3.39,1.01-4.57,1.37-7.96,2.38l-2.12,6.59h-9.72l-2.12-6.59-7.96-2.38-5.92,4.2-7.86-5.24,2.51-6.46-4.92-6.2-7.47.19c-1.57-4.4-1.45-4.08-3-8.48l6.16-3.88v-7.68l-6.16-3.88c1.57-4.4,1.45-4.08,3-8.48l7.47.19,4.92-6.2-2.51-6.46c4.08-2.73,3.78-2.51,7.86-5.24l5.92,4.2,7.96-2.38,2.12-6.59h9.72Z"/>
  <path class="cls-5" d="m405.98,124.14l5.39,6.84,10.29-.24,5-7.08c5.96,1.63,5.51,1.5,11.47,3.13v8.45c3.59,2.29,4.84,3.07,8.45,5.36l8.59-3.03c3.78,4.53,3.49,4.18,7.29,8.71l-5.43,6.82,3.43,8.9,8.9,2.17.31,10.97-8.76,2.58c-1.24,3.86-1.67,5.19-2.92,9.05l5.8,6.55c-3.53,4.7-3.27,4.35-6.78,9.05l-8.76-2.62c-3.47,2.45-4.7,3.3-8.17,5.75l.49,8.43c-5.86,1.91-5.41,1.76-11.29,3.65l-5.39-6.84-10.29.24-5,7.08c-5.96-1.63-5.51-1.5-11.47-3.13v-8.45c-3.59-2.28-4.84-3.07-8.45-5.36l-8.59,3.03c-3.78-4.53-3.49-4.18-7.29-8.71l5.43-6.82-3.43-8.9-8.9-2.17c-.16-5.71-.14-5.26-.31-10.97l8.76-2.59,2.92-9.05-5.8-6.56c3.53-4.7,3.26-4.35,6.78-9.05l8.76,2.62c3.47-2.45,4.69-3.3,8.16-5.75l-.49-8.43,11.29-3.65Z"/>
  <path class="cls-5" d="m338.11,88.01l1.63,5.08,6.12,1.84,4.57-3.22,6.06,4.05-1.94,4.98,3.8,4.78,5.76-.15c1.2,3.41,1.1,3.15,2.31,6.54l-4.76,3v5.92l4.76,3c-1.2,3.41-1.1,3.15-2.31,6.54l-5.76-.15-3.8,4.78,1.94,4.98c-3.14,2.1-2.92,1.95-6.06,4.04l-4.57-3.22-6.12,1.83-1.63,5.08h-7.49l-1.63-5.08-6.12-1.83-4.57,3.22c-3.14-2.1-2.92-1.95-6.06-4.04l1.94-4.98-3.8-4.78-5.76.15c-1.2-3.41-1.1-3.15-2.31-6.54l4.76-3v-5.92l-4.76-3c1.2-3.41,1.1-3.15,2.31-6.54l5.76.15,3.8-4.78-1.94-4.98c3.14-2.1,2.92-1.95,6.06-4.05l4.57,3.22,6.12-1.84,1.63-5.08h7.49Z"/>
  <path class="cls-3" d="m160.27,335.86v61.8"/>
  <path class="cls-3" d="m72.5,513.78h38.78"/>
  <path class="cls-3" d="m278.65,538.13c14.65,0,26.54-10.9,26.54-24.35s-11.88-24.35-26.54-24.35-26.54,10.9-26.54,24.35,11.88,24.35,26.54,24.35Z"/>
  <path class="cls-3" d="m284.78,476.33l38.19-136.01,66.07-53.53,128.9-56.24,89.91-8"/>
  <path class="cls-3" d="m70.46,281.55h87.77"/>
  <path class="cls-3" d="m227.62,495.06l-67.36-97.39"/>
  <path class="cls-3" d="m91.89,261.91v-79.82l56.09-83.29,101.61-57.91,109-14.05,100.83,19.22,70.6,57.66,63.26,64.37,14,21.43"/>
  <path class="cls-2" d="m585.84,642.07l22.45-350.22"/>
</svg>