<?xml version="1.0" encoding="UTF-8"?>
<svg id="Lag_2" data-name="Lag 2" xmlns="http://www.w3.org/2000/svg" viewBox="0 0 82.89 120.12">
  <defs>
    <style>
      .cls-1 {
        fill: #fcee21;
        stroke: #000;
        stroke-miterlimit: 10;
      }
    </style>
  </defs>
  <g id="Lag_1-2" data-name="Lag 1">
    <path class="cls-1" d="m60.06,89.84c2.23-7.42,6.86-13.75,11.45-20.05h0c1.21-1.65,2.42-3.3,3.58-4.98,4.61-6.63,7.31-14.66,7.31-23.34C82.39,18.83,64.06.5,41.45.5S.5,18.83.5,41.45c0,8.68,2.7,16.73,7.31,23.34,1.16,1.68,2.37,3.33,3.58,4.98h0c4.61,6.3,9.24,12.66,11.45,20.05h37.22v.02Zm-18.61,29.78c10.28,0,18.61-8.33,18.61-18.61v-3.72H22.83v3.72c0,10.28,8.33,18.61,18.61,18.61ZM22.83,41.45c0,2.05-1.68,3.72-3.72,3.72s-3.72-1.68-3.72-3.72c0-14.4,11.66-26.06,26.06-26.06,2.05,0,3.72,1.68,3.72,3.72s-1.68,3.72-3.72,3.72c-10.28,0-18.61,8.33-18.61,18.61Z"/>
  </g>
</svg>